<svg xmlns="http://www.w3.org/2000/svg" viewBox="0 0 900 500" width="900" height="500" fill="none" font-family="ui-monospace, SFMono-Regular, Menlo, Consolas, monospace">
  <defs>
    <linearGradient id="dbg" x1="0" y1="0" x2="1" y2="1">
      <stop offset="0" stop-color="#1a0912"/><stop offset="1" stop-color="#0d0609"/>
    </linearGradient>
    <radialGradient id="dglow" cx="50%" cy="45%" r="60%">
      <stop offset="0" stop-color="#fb7185" stop-opacity="0.16"/><stop offset="1" stop-color="#fb7185" stop-opacity="0"/>
    </radialGradient>
    <filter id="dsoft" x="-40%" y="-40%" width="180%" height="180%">
      <feGaussianBlur stdDeviation="5" result="b"/>
      <feMerge><feMergeNode in="b"/><feMergeNode in="SourceGraphic"/></feMerge>
    </filter>
    <marker id="arr" viewBox="0 0 10 10" refX="8" refY="5" markerWidth="7" markerHeight="7" orient="auto-start-reverse">
      <path d="M0 0 L10 5 L0 10 Z" fill="#fb7185"/>
    </marker>
  </defs>

  <rect width="900" height="500" rx="18" fill="url(#dbg)"/>
  <rect width="900" height="500" rx="18" fill="url(#dglow)"/>

  <!-- instructor test suites feed the runner -->
  <rect x="250" y="34" width="188" height="58" rx="12" fill="#2a0d18" stroke="#fb7185" stroke-width="1.6" stroke-opacity="0.65"/>
  <text x="344" y="58" text-anchor="middle" font-size="13.5" fill="#ffe4e6">instructor test suites</text>
  <text x="344" y="78" text-anchor="middle" font-size="12" fill="#fda4af" opacity="0.85">pytest · JUnit</text>
  <path d="M344 92 V132" stroke="#fb7185" stroke-width="2" opacity="0.6" marker-end="url(#arr)"/>

  <!-- main pipeline -->
  <g stroke="#fb7185" stroke-width="2">
    <rect x="36" y="140" width="170" height="96" rx="14" fill="#2a0d18"/>
    <rect x="246" y="140" width="196" height="96" rx="14" fill="#2a0d18" stroke-width="2.5"/>
    <rect x="482" y="140" width="172" height="96" rx="14" fill="#2a0d18"/>
    <rect x="694" y="140" width="170" height="96" rx="14" fill="#2a0d18"/>
  </g>

  <text x="121" y="176" text-anchor="middle" font-size="16" font-weight="600" fill="#ffe4e6">submissions</text>
  <text x="121" y="198" text-anchor="middle" font-size="12" fill="#fda4af" opacity="0.85">400+ Java &amp; Python</text>
  <text x="121" y="216" text-anchor="middle" font-size="12" fill="#fda4af" opacity="0.6">in a cycle at peak</text>

  <text x="344" y="176" text-anchor="middle" font-size="16" font-weight="600" fill="#ffe4e6">runner</text>
  <text x="344" y="198" text-anchor="middle" font-size="12" fill="#fda4af" opacity="0.85">one isolated process each</text>
  <text x="344" y="216" text-anchor="middle" font-size="12" fill="#fda4af" opacity="0.6">hard timeout, output caps</text>

  <text x="568" y="176" text-anchor="middle" font-size="16" font-weight="600" fill="#ffe4e6">rubric engine</text>
  <text x="568" y="198" text-anchor="middle" font-size="12" fill="#fda4af" opacity="0.85">outcomes map to points</text>
  <text x="568" y="216" text-anchor="middle" font-size="12" fill="#fda4af" opacity="0.6">every student, zero drift</text>

  <text x="779" y="176" text-anchor="middle" font-size="16" font-weight="600" fill="#ffe4e6">reports</text>
  <text x="779" y="198" text-anchor="middle" font-size="12" fill="#fda4af" opacity="0.85">gradebook CSV</text>
  <text x="779" y="216" text-anchor="middle" font-size="12" fill="#fda4af" opacity="0.6">per-student detail</text>

  <g stroke="#fb7185" stroke-width="2" opacity="0.8">
    <path d="M206 188 H238" marker-end="url(#arr)"/>
    <path d="M442 188 H474" marker-end="url(#arr)"/>
    <path d="M654 188 H686" marker-end="url(#arr)"/>
  </g>

  <!-- feedback loop -->
  <path d="M568 236 V296 H515 V332" stroke="#fb7185" stroke-width="2" opacity="0.6" fill="none" marker-end="url(#arr)"/>
  <text x="588" y="280" font-size="11.5" fill="#fda4af" opacity="0.7">failure patterns</text>

  <rect x="420" y="340" width="190" height="92" rx="14" fill="#2a0d18" stroke="#fb7185" stroke-width="2"/>
  <text x="515" y="376" text-anchor="middle" font-size="16" font-weight="600" fill="#ffe4e6">LLM drafter</text>
  <text x="515" y="398" text-anchor="middle" font-size="12" fill="#fda4af" opacity="0.85">failing test, likely cause,</text>
  <text x="515" y="416" text-anchor="middle" font-size="12" fill="#fda4af" opacity="0.6">a draft comment</text>
  <!-- AI sparkle -->
  <path d="M612 330 C612 339 616 343 625 343 C616 343 612 347 612 356 C612 347 608 343 599 343 C608 343 612 339 612 330 Z" fill="#ffe4e6" filter="url(#dsoft)"/>

  <path d="M610 386 H652" stroke="#fb7185" stroke-width="2" opacity="0.8" marker-end="url(#arr)"/>
  <text x="631" y="374" text-anchor="middle" font-size="11.5" fill="#fda4af" opacity="0.7">draft</text>

  <rect x="660" y="340" width="200" height="92" rx="14" fill="#2a0d18" stroke="#fb7185" stroke-width="2"/>
  <text x="760" y="376" text-anchor="middle" font-size="16" font-weight="600" fill="#ffe4e6">human review</text>
  <text x="760" y="398" text-anchor="middle" font-size="12" fill="#fda4af" opacity="0.85">the TA edits and approves</text>
  <text x="760" y="416" text-anchor="middle" font-size="12" fill="#fda4af" opacity="0.6">the model never decides</text>

  <path d="M779 340 V244" stroke="#fb7185" stroke-width="2" opacity="0.6" marker-end="url(#arr)"/>
  <text x="770" y="296" text-anchor="end" font-size="11.5" fill="#fda4af" opacity="0.7">approved feedback</text>
</svg>
