<svg xmlns="http://www.w3.org/2000/svg" viewBox="0 0 900 640" width="900" height="640" fill="none" font-family="ui-monospace, SFMono-Regular, Menlo, Consolas, monospace">
  <defs>
    <linearGradient id="ppbg" x1="0" y1="0" x2="1" y2="1">
      <stop offset="0" stop-color="#06201f"/><stop offset="1" stop-color="#070d0d"/>
    </linearGradient>
    <radialGradient id="ppglow" cx="50%" cy="45%" r="60%">
      <stop offset="0" stop-color="#2dd4bf" stop-opacity="0.16"/><stop offset="1" stop-color="#2dd4bf" stop-opacity="0"/>
    </radialGradient>
    <marker id="pparr" viewBox="0 0 10 10" refX="8" refY="5" markerWidth="7" markerHeight="7" orient="auto-start-reverse">
      <path d="M0 0 L10 5 L0 10 Z" fill="#2dd4bf"/>
    </marker>
  </defs>

  <rect width="900" height="640" rx="18" fill="url(#ppbg)"/>
  <rect width="900" height="640" rx="18" fill="url(#ppglow)"/>

  <g stroke="#2dd4bf" stroke-width="2">
    <rect x="36" y="272" width="130" height="96" rx="14" fill="#0b2b29"/>
    <rect x="206" y="272" width="190" height="96" rx="14" fill="#0b2b29"/>
    <rect x="466" y="100" width="230" height="96" rx="14" fill="#0b2b29"/>
    <rect x="466" y="272" width="230" height="96" rx="14" fill="#0b2b29"/>
    <rect x="466" y="444" width="230" height="96" rx="14" fill="#0b2b29"/>
    <rect x="736" y="272" width="128" height="96" rx="14" fill="#0b2b29" stroke-width="2.5"/>
  </g>

  <text x="101" y="310" text-anchor="middle" font-size="16" font-weight="600" fill="#ccfbf1">palm scan</text>
  <text x="101" y="332" text-anchor="middle" font-size="12" fill="#5eead4" opacity="0.85">contactless</text>

  <text x="301" y="304" text-anchor="middle" font-size="16" font-weight="600" fill="#ccfbf1">preprocess</text>
  <text x="301" y="326" text-anchor="middle" font-size="12" fill="#5eead4" opacity="0.85">Gaussian · Otsu ROI</text>
  <text x="301" y="344" text-anchor="middle" font-size="12" fill="#5eead4" opacity="0.6">CLAHE enhancement</text>

  <text x="581" y="132" text-anchor="middle" font-size="16" font-weight="600" fill="#ccfbf1">deep track</text>
  <text x="581" y="154" text-anchor="middle" font-size="12" fill="#5eead4" opacity="0.85">EfficientNet-B4 · ResNet-152</text>
  <text x="581" y="172" text-anchor="middle" font-size="12" fill="#5eead4" opacity="0.6">ViT-B/16</text>

  <text x="581" y="304" text-anchor="middle" font-size="16" font-weight="600" fill="#ccfbf1">texture track</text>
  <text x="581" y="326" text-anchor="middle" font-size="12" fill="#5eead4" opacity="0.85">LBP · KAZE</text>
  <text x="581" y="344" text-anchor="middle" font-size="12" fill="#5eead4" opacity="0.6">classic descriptors still vote</text>

  <text x="581" y="476" text-anchor="middle" font-size="16" font-weight="600" fill="#ccfbf1">frequency track</text>
  <text x="581" y="498" text-anchor="middle" font-size="12" fill="#5eead4" opacity="0.85">Gabor · DWT · DCT</text>
  <text x="581" y="516" text-anchor="middle" font-size="12" fill="#5eead4" opacity="0.6">ridge patterns live here</text>

  <text x="800" y="298" text-anchor="middle" font-size="15" font-weight="600" fill="#ccfbf1">fusion +</text>
  <text x="800" y="318" text-anchor="middle" font-size="15" font-weight="600" fill="#ccfbf1">Siamese</text>
  <text x="800" y="340" text-anchor="middle" font-size="11.5" fill="#5eead4" opacity="0.85">triplet loss</text>
  <text x="800" y="356" text-anchor="middle" font-size="11.5" fill="#5eead4" opacity="0.6">256-d embedding</text>

  <g stroke="#2dd4bf" stroke-width="2" opacity="0.8" fill="none">
    <path d="M166 320 H198" marker-end="url(#pparr)"/>
    <path d="M396 320 H424 V148 H458" marker-end="url(#pparr)"/>
    <path d="M396 320 H458" marker-end="url(#pparr)"/>
    <path d="M396 320 H424 V492 H458" marker-end="url(#pparr)"/>
    <path d="M696 148 H716 V308"/>
    <path d="M696 492 H716 V332"/>
    <path d="M696 320 H728" marker-end="url(#pparr)"/>
  </g>

  <rect x="36" y="572" width="828" height="52" rx="14" fill="#0b2b29" fill-opacity="0.55" stroke="#2dd4bf" stroke-width="1.6" stroke-dasharray="6 6" stroke-opacity="0.7"/>
  <text x="450" y="604" text-anchor="middle" font-size="12.5" fill="#ccfbf1">ensemble scoring: cohort normalization · multi-template fusion · adaptive matcher fusion · quality filtering → 99.75% AUC</text>
</svg>
