<svg xmlns="http://www.w3.org/2000/svg" viewBox="0 0 800 450" width="800" height="450" fill="none">
  <defs>
    <linearGradient id="bg" x1="0" y1="0" x2="1" y2="1">
      <stop offset="0" stop-color="#08221c"/><stop offset="1" stop-color="#070d0a"/>
    </linearGradient>
    <radialGradient id="glow" cx="50%" cy="48%" r="55%">
      <stop offset="0" stop-color="#34d399" stop-opacity="0.22"/><stop offset="1" stop-color="#34d399" stop-opacity="0"/>
    </radialGradient>
  </defs>
  <rect width="800" height="450" fill="url(#bg)"/>
  <rect width="800" height="450" fill="url(#glow)"/>
  <g stroke="#34d399" stroke-width="1.5" opacity="0.45">
    <line x1="400" y1="225" x2="250" y2="130"/><line x1="400" y1="225" x2="560" y2="140"/>
    <line x1="400" y1="225" x2="600" y2="300"/><line x1="400" y1="225" x2="220" y2="320"/>
    <line x1="250" y1="130" x2="560" y2="140"/><line x1="220" y1="320" x2="600" y2="300"/>
    <line x1="250" y1="130" x2="160" y2="230"/><line x1="560" y1="140" x2="660" y2="210"/>
    <line x1="600" y1="300" x2="660" y2="210"/><line x1="220" y1="320" x2="160" y2="230"/>
  </g>
  <g fill="#34d399">
    <circle cx="250" cy="130" r="9"/><circle cx="560" cy="140" r="9"/>
    <circle cx="600" cy="300" r="9"/><circle cx="220" cy="320" r="9"/>
    <circle cx="160" cy="230" r="7"/><circle cx="660" cy="210" r="7"/>
  </g>
  <circle cx="400" cy="225" r="14" fill="#ffffff"/>
</svg>
