<svg xmlns="http://www.w3.org/2000/svg" viewBox="0 0 800 450" width="800" height="450" fill="none">
  <defs>
    <linearGradient id="bg" x1="0" y1="0" x2="1" y2="1">
      <stop offset="0" stop-color="#24091a"/><stop offset="1" stop-color="#0c0710"/>
    </linearGradient>
    <radialGradient id="glow" cx="50%" cy="50%" r="55%">
      <stop offset="0" stop-color="#f472b6" stop-opacity="0.2"/><stop offset="1" stop-color="#f472b6" stop-opacity="0"/>
    </radialGradient>
  </defs>
  <rect width="800" height="450" fill="url(#bg)"/>
  <rect width="800" height="450" fill="url(#glow)"/>
  <g fill="#f472b6">
    <rect x="120" y="200" width="22" height="50" rx="6" opacity="0.5"/>
    <rect x="158" y="160" width="22" height="130" rx="6" opacity="0.7"/>
    <rect x="196" y="120" width="22" height="210" rx="6" opacity="0.9"/>
    <rect x="234" y="180" width="22" height="90" rx="6" opacity="0.6"/>
    <rect x="272" y="100" width="22" height="250" rx="6"/>
    <rect x="310" y="150" width="22" height="150" rx="6" opacity="0.75"/>
    <rect x="348" y="210" width="22" height="30" rx="6" opacity="0.45"/>
    <rect x="386" y="140" width="22" height="170" rx="6" opacity="0.8"/>
    <rect x="424" y="180" width="22" height="90" rx="6" opacity="0.6"/>
    <rect x="462" y="110" width="22" height="230" rx="6" opacity="0.95"/>
    <rect x="500" y="170" width="22" height="110" rx="6" opacity="0.7"/>
    <rect x="538" y="200" width="22" height="50" rx="6" opacity="0.5"/>
    <rect x="576" y="150" width="22" height="150" rx="6" opacity="0.8"/>
    <rect x="614" y="190" width="22" height="70" rx="6" opacity="0.55"/>
    <rect x="652" y="130" width="22" height="190" rx="6" opacity="0.85"/>
  </g>
</svg>
