<svg xmlns="http://www.w3.org/2000/svg" viewBox="0 0 800 450" width="800" height="450" fill="none">
  <defs>
    <linearGradient id="bg" x1="0" y1="0" x2="1" y2="1">
      <stop offset="0" stop-color="#0e1726"/><stop offset="1" stop-color="#070a10"/>
    </linearGradient>
    <radialGradient id="glow" cx="50%" cy="42%" r="55%">
      <stop offset="0" stop-color="#5e9eff" stop-opacity="0.28"/><stop offset="1" stop-color="#5e9eff" stop-opacity="0"/>
    </radialGradient>
  </defs>
  <rect width="800" height="450" fill="url(#bg)"/>
  <rect width="800" height="450" fill="url(#glow)"/>
  <g stroke="#5e9eff" stroke-width="1.5" opacity="0.55">
    <line x1="400" y1="225" x2="300" y2="150"/>
    <line x1="400" y1="225" x2="520" y2="180"/>
    <line x1="400" y1="225" x2="470" y2="320"/>
    <line x1="400" y1="225" x2="330" y2="300"/>
  </g>
  <g fill="#9bb6e0" opacity="0.5">
    <circle cx="180" cy="110" r="4"/><circle cx="620" cy="100" r="4"/>
    <circle cx="680" cy="300" r="4"/><circle cx="150" cy="330" r="4"/>
    <circle cx="250" cy="220" r="3"/><circle cx="560" cy="290" r="3"/>
    <circle cx="610" cy="370" r="3"/><circle cx="230" cy="390" r="3"/>
    <circle cx="700" cy="190" r="3"/><circle cx="120" cy="200" r="3"/>
  </g>
  <g fill="#5e9eff">
    <circle cx="300" cy="150" r="6"/><circle cx="520" cy="180" r="6"/>
    <circle cx="470" cy="320" r="6"/><circle cx="330" cy="300" r="6"/>
  </g>
  <circle cx="400" cy="225" r="11" fill="#ffffff"/>
  <circle cx="400" cy="225" r="21" stroke="#ffffff" stroke-opacity="0.4" stroke-width="1.5"/>
</svg>
