<svg id="Header_Logo" data-name="Header Logo" xmlns="http://www.w3.org/2000/svg" width="168.265" height="51.214" viewBox="0 0 168.265 51.214">
  <g id="Group_122" data-name="Group 122">
    <path id="Path_150" data-name="Path 150" d="M2952.139,528.231a9.059,9.059,0,0,1-2.5-.327,5.073,5.073,0,0,1-1.984-1.064,4.723,4.723,0,0,1-1.289-1.944,8.665,8.665,0,0,1-.45-3.007V510.513h-2.741v-4.255h2.741v-5.933h4.953v5.933h5.811v4.255h-5.811v10.6a2.679,2.679,0,0,0,.7,2.067,2.807,2.807,0,0,0,1.964.634,6.778,6.778,0,0,0,3.069-.737v4.051a8.68,8.68,0,0,1-1.984.818,9.45,9.45,0,0,1-2.476.287" transform="translate(-2877.292 -490.492)" fill="#030202"/>
    <path id="Path_151" data-name="Path 151" d="M3017.232,546.022a7.219,7.219,0,0,1-5.687-2.251,8.769,8.769,0,0,1-2.005-6.056V523.968h4.951v12.246a5.622,5.622,0,0,0,1.208,3.878,4.351,4.351,0,0,0,3.416,1.347,4.689,4.689,0,0,0,3.519-1.388,5.388,5.388,0,0,0,1.35-3.919V523.967h4.951v21.605h-4.951v-3.39a10.621,10.621,0,0,1-2.66,2.7,6.892,6.892,0,0,1-4.092,1.136" transform="translate(-2926.999 -508.201)" fill="#030202"/>
    <path id="Path_152" data-name="Path 152" d="M3105.085,522.754h4.951v4.867a9.505,9.505,0,0,1,2.905-3.926,6.962,6.962,0,0,1,4.746-1.35v5.235h-.287a8.091,8.091,0,0,0-2.987.532,6.26,6.26,0,0,0-2.333,1.595,7.2,7.2,0,0,0-1.514,2.679,11.974,11.974,0,0,0-.532,3.742v8.221h-4.951Z" transform="translate(-2998.567 -506.979)" fill="#030202"/>
    <path id="Path_153" data-name="Path 153" d="M3166.436,500.028h4.951v21.6h-4.951Zm-.2-8.02h5.32v4.705h-5.32Z" transform="translate(-3044.37 -484.262)" fill="#030202"/>
    <path id="Path_154" data-name="Path 154" d="M3208.124,528.231a9.062,9.062,0,0,1-2.5-.327,5.067,5.067,0,0,1-1.984-1.064,4.715,4.715,0,0,1-1.289-1.944,8.659,8.659,0,0,1-.45-3.007V510.513h-2.743v-4.255h2.743v-5.933h4.951v5.933h5.811v4.255h-5.81v10.6a2.679,2.679,0,0,0,.7,2.067,2.806,2.806,0,0,0,1.964.634,6.78,6.78,0,0,0,3.069-.737v4.051a8.673,8.673,0,0,1-1.984.818,9.444,9.444,0,0,1-2.476.287" transform="translate(-3069.036 -490.492)" fill="#030202"/>
    <path id="Path_155" data-name="Path 155" d="M3270.876,540.381a6.385,6.385,0,0,0,4.788-2.025,6.239,6.239,0,0,0,1.308-2.169,7.723,7.723,0,0,0,.45-2.639v-.082a7.408,7.408,0,0,0-.491-2.7,6.807,6.807,0,0,0-1.371-2.21,6.577,6.577,0,0,0-2.087-1.494,6.778,6.778,0,0,0-5.359,0,6.475,6.475,0,0,0-2.067,1.473,6.208,6.208,0,0,0-1.309,2.189,7.888,7.888,0,0,0-.45,2.66v.082a7.254,7.254,0,0,0,.491,2.679,6.809,6.809,0,0,0,1.372,2.189,6.557,6.557,0,0,0,2.086,1.494,6.271,6.271,0,0,0,2.639.552m-.082,4.338a11.729,11.729,0,0,1-4.561-.88,11.331,11.331,0,0,1-3.641-2.392,10.835,10.835,0,0,1-2.392-3.56,11.084,11.084,0,0,1-.859-4.338v-.082a10.958,10.958,0,0,1,.88-4.378,11.273,11.273,0,0,1,6.056-6.015,11.6,11.6,0,0,1,4.6-.9,11.837,11.837,0,0,1,4.6.88,11.066,11.066,0,0,1,6.9,10.332v.082a10.854,10.854,0,0,1-.88,4.338,11.222,11.222,0,0,1-6.076,6.015,11.754,11.754,0,0,1-4.625.9" transform="translate(-3114.112 -506.856)" fill="#030202"/>
    <path id="Path_156" data-name="Path 156" d="M2680.634,470.194v45.045s18.1-7.793,27.227,3.9c9.123-11.689,27.227-3.9,27.227-3.9V470.194l-5.465,4.042v33.735a37.6,37.6,0,0,0-7.216-.741,24.258,24.258,0,0,0-14.545,4.364,24.266,24.266,0,0,0-14.545-4.364,37.579,37.579,0,0,0-7.217.741V474.239Z" transform="translate(-2680.633 -467.922)" fill="#030202"/>
    <path id="Path_157" data-name="Path 157" d="M2735.083,463.413l-5.463,4.043a31.024,31.024,0,0,0-7.04-.85,19.4,19.4,0,0,0-11.542,3.39l-3.18,2.274-3.18-2.274a19.4,19.4,0,0,0-11.543-3.39,31.1,31.1,0,0,0-7.04.853l-5.465-4.045s15.4-6.329,27.228,2.137c11.831-8.466,27.225-2.137,27.225-2.137" transform="translate(-2680.63 -461.14)" fill="#ed1b36"/>
    <rect id="Rectangle_186" data-name="Rectangle 186" width="5.464" height="29.46" transform="translate(24.495 7.348)" fill="#ed1b36"/>
  </g>
</svg>
